<mxfile host="app.diagrams.net" modified="2024-04-07T01:42:30.872Z" agent="Mozilla/5.0 (Windows NT 10.0; Win64; x64; rv:124.0) Gecko/20100101 Firefox/124.0" version="24.2.0" etag="Z9IQ5d_ZWiFaVEtAb83F" type="github">
  <diagram name="第 1 页" id="hVsTRFt6PsPFNjRw-0qI">
    <mxGraphModel>
      <root>
        <mxCell id="0" />
        <mxCell id="1" parent="0" />
      </root>
    </mxGraphModel>
  </diagram>
</mxfile>
